# xmcd
#
# Track frame offsets:
#	150
#	13748
#	28141
#	42334
#	55633
#	68810
#	86708
#	100710
#	117014
#	127590
#	145503
#	160784
#	177074
#	194748
#	209983
#	224768
#	241270
#	252986
#	269216
#	284612
#	299637
#	316235
#	337227
#
# Disc length: 4693 seconds
#
# Revision: 1
# Processed by: cddbd v1.5.2PL0 Copyright (c) Steve Scherf et al.
# Submitted via: audiograbber 1.83.01
#
DISCID=6e125317
DTITLE=Various Artist - CDX Volume 1035 (November 16, 2015)
DYEAR=2015
DGENRE=Other
TTITLE0=Kenny Rogers (featuring Jennifer Nettles) - Baby, It's Cold Outside 
TTITLE1=Mickey Guyton - Do You Want To Build A Snowman
TTITLE2=John Berry - Blue Christmas
TTITLE3=Nickel Slots - A Shot and a Beer for Christmas
TTITLE4=Eric Durrance - A Southern Christmas
TTITLE5=Teea Goans - All I Want For Christmas Is You
TTITLE6=J. Michael Harter - Another Trip Around the Sun
TTITLE7=Troy Johnson - Children On Christmas Day
TTITLE8=Sarah Dunn Band - Christmas Day 
TTITLE9=Emily Vance - Christmas Stays The Same
TTITLE10=Robby Johnson - Happy Xmas (War is Over)
TTITLE11=Claire Petrie (featuring T. Graham Brown) - He Would Be King
TTITLE12=Allie Louise - Hometown Christmas
TTITLE13=C.J Garton - Mary, Did You Know?
TTITLE14=Skylar Elise - Motorcycle Santa
TTITLE15=Maiden Dixie - O Come O Come Emmanuel
TTITLE16=Robby Johnson - Rudolph the Red-Nosed Reindeer
TTITLE17=Leslie Cours Mather - Santa Baby
TTITLE18=Greg Sterling - That'd Better Be Santa Claus 
TTITLE19=Stephanie Thompson - The Blessing Of Christmas
TTITLE20=Rusty Rierson - The Reason For The Season
TTITLE21=Teea Goans - They Saw A King
TTITLE22=James Robert Webb - Wonderful Christmastime
EXTD=
EXTT0=
EXTT1=
EXTT2=
EXTT3=
EXTT4=
EXTT5=
EXTT6=
EXTT7=
EXTT8=
EXTT9=
EXTT10=
EXTT11=
EXTT12=
EXTT13=
EXTT14=
EXTT15=
EXTT16=
EXTT17=
EXTT18=
EXTT19=
EXTT20=
EXTT21=
EXTT22=
PLAYORDER=
